# xmcd
#
# Track frame offsets:
#	150
#	18203
#	33737
#	46427
#	64299
#	79457
#	100753
#	113010
#	130042
#	146347
#	161060
#	177992
#
# Disc length: 2605 seconds
# Revision: 0
# Processed by: cddbd v1.5.2PL0 Copyright (c) Steve Scherf et al.
# Submitted via: dBpowerAMP V12.0
#
DISCID=a00a2b0c
DTITLE=Marty Rivers - Midnight Sky
DYEAR=2011
DGENRE=Country
TTITLE0=Midnight Sky
TTITLE1=Addict For Your Love
TTITLE2=Run Angel Run
TTITLE3=Just In Case
TTITLE4=Louisiana Girl
TTITLE5=God Sent Angel
TTITLE6=Rise And Fall Of A Honky Tonk Hero
TTITLE7=Queen Of My Heart
TTITLE8=Lora Mae
TTITLE9=Mama You're The Lady
TTITLE10=The Power Of Prayer
TTITLE11=Forever Yours
EXTD=
EXTT0=
EXTT1=
EXTT2=
EXTT3=
EXTT4=
EXTT5=
EXTT6=
EXTT7=
EXTT8=
EXTT9=
EXTT10=
EXTT11=
PLAYORDER=
